<?xml version="1.0" encoding="utf-8"?>
<!-- Generator: Adobe Illustrator 22.1.0, SVG Export Plug-In . SVG Version: 6.00 Build 0)  -->
<svg version="1.1" id="Layer_1" xmlns="http://www.w3.org/2000/svg" xmlns:xlink="http://www.w3.org/1999/xlink" x="0px" y="0px"
	 viewBox="0 0 1507 714" style="enable-background:new 0 0 1507 714;" xml:space="preserve">
<style type="text/css">
	.st0{fill:none;stroke:#FFE380;stroke-width:3.6065;stroke-linecap:round;stroke-miterlimit:10;}
	.st1{fill:url(#SVGID_1_);}
	.st2{fill:url(#SVGID_2_);}
	.st3{fill:url(#SVGID_3_);}
	.st4{fill:url(#SVGID_4_);}
	.st5{opacity:0.2;}
	.st6{fill:url(#SVGID_5_);}
	.st7{fill:url(#SVGID_6_);}
	.st8{fill:#FFFFFF;}
	.st9{fill:url(#SVGID_7_);}
	.st10{fill:#C1C7D0;}
	.st11{fill:#E6FCFF;fill-opacity:0.65;stroke:#4C9AFF;stroke-width:3;stroke-miterlimit:10;stroke-dasharray:12;}
	.st12{fill:url(#SVGID_8_);}
	.st13{fill:url(#SVGID_9_);}
	.st14{fill:url(#SVGID_10_);}
</style>
<g>
	<linearGradient id="SVGID_1_" gradientUnits="userSpaceOnUse" x1="45.0113" y1="357" x2="489.0113" y2="357">
		<stop  offset="0" style="stop-color:#C1C7D0"/>
		<stop  offset="0.5786" style="stop-color:#D8DBE1"/>
		<stop  offset="1" style="stop-color:#EBECF0"/>
	</linearGradient>
	<path class="st1" d="M474,712.5H60c-8.3,0-15-6.7-15-15v-681c0-8.3,6.7-15,15-15h414c8.3,0,15,6.7,15,15v681
		C489,705.8,482.3,712.5,474,712.5z"/>
	<linearGradient id="SVGID_2_" gradientUnits="userSpaceOnUse" x1="530.0114" y1="357" x2="974.0114" y2="357">
		<stop  offset="0" style="stop-color:#C1C7D0"/>
		<stop  offset="0.5786" style="stop-color:#D8DBE1"/>
		<stop  offset="1" style="stop-color:#EBECF0"/>
	</linearGradient>
	<path class="st2" d="M959,712.5H545c-8.3,0-15-6.7-15-15v-681c0-8.3,6.7-15,15-15h414c8.3,0,15,6.7,15,15v681
		C974,705.8,967.3,712.5,959,712.5z"/>
	<linearGradient id="SVGID_3_" gradientUnits="userSpaceOnUse" x1="1008.0114" y1="357" x2="1452.0114" y2="357">
		<stop  offset="0" style="stop-color:#C1C7D0"/>
		<stop  offset="0.5786" style="stop-color:#D8DBE1"/>
		<stop  offset="1" style="stop-color:#EBECF0"/>
	</linearGradient>
	<path class="st3" d="M1437,712.5h-414c-8.3,0-15-6.7-15-15v-681c0-8.3,6.7-15,15-15h414c8.3,0,15,6.7,15,15v681
		C1452,705.8,1445.3,712.5,1437,712.5z"/>
	<g>
		<g class="st5">
			
				<linearGradient id="SVGID_4_" gradientUnits="userSpaceOnUse" x1="690.2922" y1="-1017.9448" x2="745.8086" y2="-904.4443" gradientTransform="matrix(1 0 0 1 24.5 1478.5)">
				<stop  offset="0" style="stop-color:#A5ADBA"/>
				<stop  offset="1" style="stop-color:#FFFFFF"/>
			</linearGradient>
			<path class="st4" d="M45,551.5c699,0,606.6-194.3,1406-194.3v339.5c0,8.7-7.1,15.8-15.8,15.8H60.1c-7.8,0-14.1-6.3-14.2-14.1
				L45,551.5z"/>
		</g>
	</g>
	<g>
		<linearGradient id="SVGID_5_" gradientUnits="userSpaceOnUse" x1="91.0113" y1="175.793" x2="467.0113" y2="175.793">
			<stop  offset="0" style="stop-color:#0052CC"/>
			<stop  offset="0.3539" style="stop-color:#0065FF"/>
			<stop  offset="0.6442" style="stop-color:#2684FF"/>
			<stop  offset="0.9111" style="stop-color:#4C9AFF"/>
			<stop  offset="1" style="stop-color:#4C9AFF"/>
		</linearGradient>
		<path class="st6" d="M442.7,270.5H115.3c-13.4,0-24.3-10.9-24.3-24.3V105.4c0-13.4,10.9-24.3,24.3-24.3h327.4
			c13.4,0,24.3,10.9,24.3,24.3v140.8C467,259.6,456.1,270.5,442.7,270.5z"/>
		<circle class="st8" cx="415.8" cy="237.5" r="19.8"/>
		<rect x="107.6" y="92.9" class="st8" width="9.4" height="164.6"/>
	</g>
	<g>
		<linearGradient id="SVGID_6_" gradientUnits="userSpaceOnUse" x1="566.0114" y1="175.793" x2="942.0114" y2="175.793">
			<stop  offset="0" style="stop-color:#DFE1E5"/>
			<stop  offset="0.3539" style="stop-color:#EBECF0"/>
			<stop  offset="0.6442" style="stop-color:#F4F5F7"/>
			<stop  offset="0.9111" style="stop-color:#F4F5F7"/>
			<stop  offset="0.9322" style="stop-color:#F4F5F7"/>
		</linearGradient>
		<path class="st7" d="M917.7,270.5H590.3c-13.4,0-24.3-10.9-24.3-24.3V105.4c0-13.4,10.9-24.3,24.3-24.3h327.4
			c13.4,0,24.3,10.9,24.3,24.3v140.8C942,259.6,931.1,270.5,917.7,270.5z"/>
		<circle class="st10" cx="890.8" cy="237.5" r="19.8"/>
		<rect x="582.6" y="92.9" class="st10" width="9.4" height="164.6"/>
	</g>
	<path class="st11" d="M1437,712.5h-414c-8.3,0-15-6.7-15-15v-681c0-8.3,6.7-15,15-15h414c8.3,0,15,6.7,15,15v681
		C1452,705.8,1445.3,712.5,1437,712.5z"/>
	<g>
		
			<image style="overflow:visible;opacity:0.2;" width="406" height="220" xlink:href="6ECDE5960832C5A9.png"  transform="matrix(1 0 0 1 790.0114 236.5)">
		</image>
		<g>
			<g>
				<linearGradient id="SVGID_7_" gradientUnits="userSpaceOnUse" x1="820.0114" y1="331.793" x2="1196.0114" y2="331.793">
					<stop  offset="0" style="stop-color:#36B37E"/>
					<stop  offset="0.3539" style="stop-color:#39B681"/>
					<stop  offset="0.6442" style="stop-color:#42C08B"/>
					<stop  offset="0.9111" style="stop-color:#50D19C"/>
					<stop  offset="1" style="stop-color:#57D9A3"/>
				</linearGradient>
				<path class="st9" d="M1171.7,426.5H844.3c-13.4,0-24.3-10.9-24.3-24.3V261.4c0-13.4,10.9-24.3,24.3-24.3h327.4
					c13.4,0,24.3,10.9,24.3,24.3v140.8C1196,415.6,1185.1,426.5,1171.7,426.5z"/>
				<circle class="st8" cx="1144.8" cy="393.5" r="19.8"/>
				<path class="st8" d="M843,413.5h-3.4c-1.7,0-3-1.3-3-3V251.9c0-1.7,1.3-3,3-3h3.4c1.7,0,3,1.3,3,3v158.6
					C846,412.2,844.7,413.5,843,413.5z"/>
			</g>
		</g>
	</g>
	<g>
		
			<linearGradient id="SVGID_8_" gradientUnits="userSpaceOnUse" x1="-10.2918" y1="587.5" x2="106.3144" y2="587.5" gradientTransform="matrix(0.8838 0.4679 -0.4679 0.8838 280.4834 45.8192)">
			<stop  offset="0" style="stop-color:#FF5630"/>
			<stop  offset="0.3539" style="stop-color:#FF5630"/>
			<stop  offset="0.6442" style="stop-color:#FF7452"/>
			<stop  offset="0.9111" style="stop-color:#FF7452"/>
		</linearGradient>
		<path class="st12" d="M77.3,635.5l-58.6,0C8.4,635.5,0,627.1,0,616.8l0-58.6c0-10.3,8.4-18.7,18.7-18.7l58.6,0
			c10.3,0,18.7,8.4,18.7,18.7l0,58.6C96,627.1,87.6,635.5,77.3,635.5z"/>
		<g>
			<path class="st8" d="M70.1,562.3c-1.9-1.9-5.1-1.9-7.1,0l-15,15l-15-15c-1.9-1.9-5.1-1.9-7.1,0c-1.9,1.9-1.9,5.1,0,7.1l18.4,18.4
				c1,1,2.3,1.5,3.6,1.4c1.3,0,2.6-0.4,3.6-1.4l18.4-18.4C72,567.4,72,564.3,70.1,562.3z"/>
			<path class="st8" d="M25.9,587.2L25.9,587.2c-1.9,1.9-1.9,5.1,0,7.1l18.4,18.4c1.9,1.9,5.1,1.9,7.1,0l0,0c1.9-1.9,1.9-5.1,0-7.1
				L33,587.2C31,585.3,27.9,585.3,25.9,587.2z"/>
			<path class="st8" d="M70,587.2L70,587.2c1.9,1.9,1.9,5.1,0,7.1l-18.4,18.4c-1.9,1.9-5.1,1.9-7.1,0l0,0c-1.9-1.9-1.9-5.1,0-7.1
				l18.4-18.4C64.9,585.3,68.1,585.3,70,587.2z"/>
		</g>
	</g>
	<g>
		<linearGradient id="SVGID_9_" gradientUnits="userSpaceOnUse" x1="1407.4048" y1="265.1066" x2="1502.6179" y2="169.8934">
			<stop  offset="0" style="stop-color:#904EE2"/>
			<stop  offset="0.4885" style="stop-color:#6554C0"/>
			<stop  offset="0.9109" style="stop-color:#6554C0"/>
			<stop  offset="1" style="stop-color:#5243AA"/>
		</linearGradient>
		<path class="st13" d="M1492,269.5h-74c-8.3,0-15-6.7-15-15v-74c0-8.3,6.7-15,15-15h74c8.3,0,15,6.7,15,15v74
			C1507,262.8,1500.3,269.5,1492,269.5z"/>
		<path class="st8" d="M1458,190.6l6.7,13.6c0.5,1,1.4,1.6,2.5,1.8l15,2.2c2.7,0.4,3.8,3.7,1.8,5.6l-10.9,10.6
			c-0.8,0.8-1.1,1.8-0.9,2.9l2.6,15c0.5,2.7-2.4,4.7-4.8,3.5l-13.4-7.1c-1-0.5-2.1-0.5-3.1,0l-13.4,7.1c-2.4,1.3-5.2-0.8-4.8-3.5
			l2.6-15c0.2-1.1-0.2-2.2-0.9-2.9l-10.9-10.6c-2-1.9-0.9-5.2,1.8-5.6l15-2.2c1.1-0.2,2-0.8,2.5-1.8l6.7-13.6
			C1453.3,188.2,1456.8,188.2,1458,190.6z"/>
	</g>
</g>
</svg>
